# xmcd
#
# Track frame offsets: 
#        150
#        1301
#        19509
#        20358
#        43138
#        43559
#        54926
#        67105
#        83055
#        92739
#        109724
#        110458
#        125606
#        129588
#        148970
#        163886
#        168025
#        189767
#        200523
#        201504
#
# Disc length: 2984 seconds
#
# Revision: 0
# Processed by: cddbd v1.5.2PL0 Copyright (c) Steve Scherf et al.
# Submitted via: ExactAudioCopy v0.99pb4
#
DISCID=110ba614
DTITLE=Audrey Auld Mezera and Nina Gerber - In The House cd2
DYEAR=1900
DGENRE=Country
TTITLE0=Talk - Peace Process
TTITLE1=Imagine
TTITLE2=Talk - Mary Gauthier
TTITLE3=Karla Faye
TTITLE4=Talk - Hank Williams Button
TTITLE5=Ball and Chain
TTITLE6=Talk - More Ink Than Pink
TTITLE7=My Father
TTITLE8=Talk - Get-A-Bong Beach
TTITLE9=Self-Help Helped Me
TTITLE10=Talk - Keith Allen
TTITLE11=Deep Water
TTITLE12=Talk - Jewish Singing Cowboy
TTITLE13=I Still Miss Someone
TTITLE14=Next Big Nothing
TTITLE15=Talk - Thanks
TTITLE16=One Eye
TTITLE17=Half a World Away
TTITLE18=Talk - Patty Griffin
TTITLE19=Mary
EXTD=
EXTT0=
EXTT1=
EXTT2=
EXTT3=
EXTT4=
EXTT5=
EXTT6=
EXTT7=
EXTT8=
EXTT9=
EXTT10=
EXTT11=
EXTT12=
EXTT13=
EXTT14=
EXTT15=
EXTT16=
EXTT17=
EXTT18=
EXTT19=
PLAYORDER=
